<svg width="290" height="251" viewBox="0 0 290 251" fill="none" xmlns="http://www.w3.org/2000/svg">
<path fill-rule="evenodd" clip-rule="evenodd" d="M188.586 160.864C189.343 160.617 190.108 160.354 190.862 160.082L191.158 160.784C190.396 161.059 189.622 161.325 188.856 161.575L188.586 160.864Z" fill="#E6E6E6"/>
<path fill-rule="evenodd" clip-rule="evenodd" d="M166.009 31.201C167.661 31.2265 169.33 31.3054 170.972 31.436L170.902 32.1872C169.28 32.0582 167.629 31.98 165.996 31.9549L166.009 31.201ZM156.096 31.685C157.731 31.4997 159.394 31.3651 161.04 31.2847L161.083 32.0371C159.455 32.1169 157.811 32.2501 156.195 32.4332L156.096 31.685ZM146.357 33.4259C147.952 33.034 149.58 32.6889 151.194 32.4002L151.348 33.1402C149.752 33.4257 148.143 33.7669 146.566 34.1548L146.357 33.4259ZM141.607 34.7559C140.582 35.0782 139.546 35.4282 138.527 35.7964C138.002 35.9861 137.481 36.1805 136.965 36.3798L137.277 37.0759C138.782 36.495 140.333 35.9522 141.869 35.4697L141.607 34.7559ZM132.814 38.9648L132.451 38.2903C130.974 38.973 129.506 39.7102 128.089 40.4811L128.501 41.131C129.902 40.3685 131.353 39.6397 132.814 38.9648ZM124.358 43.5665L123.899 42.9439C122.539 43.8055 121.194 44.7225 119.902 45.6691L120.407 46.2602C121.684 45.3245 123.014 44.4182 124.358 43.5665ZM116.665 49.2006L116.118 48.6432L116.117 48.6432C114.899 49.67 113.705 50.7482 112.568 51.8478L113.155 52.3695C114.28 51.2821 115.461 50.2157 116.665 49.2006ZM109.888 55.7548L109.263 55.2719C108.208 56.4444 107.183 57.6646 106.219 58.8994L106.878 59.3413C107.832 58.1205 108.845 56.9138 109.888 55.7548ZM175.903 31.9863C177.534 32.2213 179.175 32.5112 180.781 32.8485L180.601 33.5835C179.014 33.2502 177.391 32.9632 175.778 32.7308L175.903 31.9863ZM104.139 63.1108L103.449 62.7116C102.576 64.0059 101.741 65.3447 100.966 66.691L101.684 67.0453C102.45 65.7145 103.276 64.3909 104.139 63.1108ZM185.584 34.0178C187.161 34.4558 188.744 34.9502 190.288 35.4873L190.001 36.1928C188.475 35.6619 186.91 35.1731 185.35 34.7398L185.584 34.0178ZM99.523 71.1271L98.7807 70.8186C98.1061 72.2111 97.4745 73.643 96.9035 75.0747L97.6668 75.3361C98.2313 73.9202 98.856 72.5042 99.523 71.1271ZM194.872 37.2502C196.372 37.8834 197.867 38.5725 199.315 39.2978L198.928 39.9607C197.496 39.2433 196.018 38.5623 194.534 37.9362L194.872 37.2502ZM96.1242 79.6538L95.3439 79.4412C94.88 80.9046 94.4642 82.4034 94.1089 83.8959L94.9031 84.0584C95.2548 82.5827 95.6657 81.1006 96.1242 79.6538ZM203.597 41.6204C204.989 42.4361 206.369 43.3069 207.696 44.2078L207.215 44.816C205.903 43.9252 204.539 43.0642 203.162 42.2571L203.597 41.6204ZM94.0102 88.5317L93.206 88.4202C92.9613 89.9314 92.771 91.4693 92.6398 92.9918L93.4506 93.052C93.5805 91.5466 93.7687 90.026 94.0102 88.5317ZM211.594 47.0481C212.853 48.0317 214.09 49.0683 215.272 50.1289L214.706 50.6701C213.537 49.6216 212.314 48.5965 211.07 47.6241L211.594 47.0481ZM93.2279 97.5975L92.4143 97.5897C92.3964 99.1178 92.4362 100.667 92.5325 102.193L93.3448 102.149C93.2498 100.64 93.2105 99.1088 93.2279 97.5975ZM218.711 53.435C219.813 54.5703 220.886 55.7556 221.9 56.9578L221.259 57.4218C220.256 56.2332 219.195 55.0616 218.106 53.9388L218.711 53.435ZM93.8008 106.675L92.9934 106.771C93.2034 108.285 93.4726 109.811 93.7938 111.308L94.5917 111.161C94.2741 109.681 94.0079 108.172 93.8008 106.675ZM224.818 60.676C225.741 61.9402 226.627 63.2509 227.453 64.5714L226.749 64.9494C225.933 63.6438 225.056 62.348 224.144 61.0981L224.818 60.676ZM95.7136 115.585L94.9284 115.782C95.3593 117.253 95.8511 118.731 96.3904 120.175L97.1592 119.928C96.6261 118.5 96.1396 117.039 95.7136 115.585ZM229.794 68.6249C230.519 69.9925 231.204 71.4028 231.831 72.8167L231.078 73.1026C230.459 71.7042 229.781 70.3098 229.063 68.9576L229.794 68.6249ZM100.983 128.296C100.25 126.951 99.5552 125.564 98.9198 124.172L98.1702 124.466C98.813 125.873 99.5151 127.276 100.258 128.636L100.983 128.296ZM103.346 132.28C104.18 133.579 105.073 134.865 105.999 136.104L105.33 136.533C104.393 135.28 103.491 133.979 102.647 132.665L103.346 132.28ZM112.121 143.194C111.02 142.085 109.946 140.926 108.93 139.749L108.295 140.22C109.323 141.41 110.409 142.583 111.522 143.705L112.121 143.194ZM115.563 146.429C116.746 147.467 117.983 148.479 119.237 149.437L118.72 150.019C117.451 149.049 116.2 148.026 115.004 146.976L115.563 146.429ZM127.212 154.722C125.828 153.931 124.453 153.084 123.127 152.205L122.653 152.819C123.995 153.707 125.385 154.564 126.785 155.363L127.212 154.722ZM131.474 156.974C132.915 157.677 134.402 158.343 135.892 158.953L135.563 159.642C134.056 159.025 132.553 158.352 131.095 157.641L131.474 156.974ZM145.115 162.053C143.551 161.636 141.98 161.164 140.446 160.648L140.169 161.357C141.719 161.878 143.308 162.356 144.89 162.777L145.115 162.053ZM149.876 163.16C151.472 163.477 153.099 163.746 154.71 163.961L154.594 164.707C152.964 164.49 151.32 164.217 149.706 163.896L149.876 163.16ZM164.5 164.634C162.87 164.626 161.219 164.566 159.592 164.454L159.532 165.205C161.177 165.318 162.848 165.38 164.496 165.387L164.5 164.634ZM169.41 164.5C171.036 164.403 172.678 164.252 174.293 164.052L174.401 164.799C172.768 165.002 171.106 165.154 169.462 165.252L169.41 164.5ZM183.902 162.229C182.331 162.633 180.726 162.991 179.131 163.293L179.295 164.032C180.907 163.726 182.53 163.363 184.119 162.955L183.902 162.229Z" fill="#E6E6E6"/>
<path fill-rule="evenodd" clip-rule="evenodd" d="M232.824 77.4697L233.596 77.2325C233.854 77.9549 234.101 78.6848 234.329 79.4024L233.549 79.6152C233.323 78.9059 233.079 78.184 232.824 77.4697Z" fill="#E6E6E6"/>
<path fill-rule="evenodd" clip-rule="evenodd" d="M224.116 118.907L231.625 117.296C232.371 117.136 233.137 117.476 233.47 118.116L241.161 132.891C241.331 133.217 241.337 133.596 241.177 133.926C241.016 134.257 240.707 134.504 240.331 134.603L232.7 136.612C231.855 136.834 230.962 136.441 230.615 135.694L225.707 125.134L225.558 125.211L224.624 123.21L224.779 123.136L223.409 120.189C223.29 119.933 223.301 119.642 223.437 119.394C223.574 119.146 223.823 118.968 224.116 118.907Z" fill="#3F3D56"/>
<path fill-rule="evenodd" clip-rule="evenodd" d="M231.597 117.656C232.115 117.545 232.648 117.783 232.875 118.229L240.383 132.91C240.47 133.081 240.473 133.278 240.39 133.451C240.307 133.624 240.147 133.755 239.951 133.81L232.374 135.928C231.932 136.052 231.459 135.848 231.277 135.454L224.174 120.14C224.081 119.939 224.089 119.71 224.195 119.516C224.302 119.321 224.496 119.18 224.726 119.13L225.557 118.952C225.723 118.917 225.893 118.988 225.973 119.127C226.044 119.25 226.194 119.313 226.34 119.282L230.288 118.435C230.576 118.373 230.765 118.116 230.72 117.844L231.597 117.656Z" fill="white"/>
<path fill-rule="evenodd" clip-rule="evenodd" d="M278.043 98.1374C277.6 96.428 275.942 95.2278 274.045 95.2428C271.338 95.2705 268.063 95.8912 268.801 98.8523C270.022 103.751 278.768 125.044 278.768 125.044L257.41 127.493C257.41 127.493 240.731 125.232 246.02 130.508C251.308 135.784 258.224 132.769 258.224 132.769C258.224 132.769 285.684 133.453 285.684 129.189C285.684 128.058 285.457 126.547 284.582 123.195L278.043 98.1374Z" fill="#FFB8B8"/>
<ellipse cx="261.885" cy="81.8938" rx="10.5771" ry="9.79822" fill="#FFB8B8"/>
<path fill-rule="evenodd" clip-rule="evenodd" d="M269.005 87.3582C269.005 87.3582 268.191 94.8953 271.039 97.9102H255.58C255.58 97.9102 259.241 94.8953 256.393 88.8657C253.546 82.836 269.005 87.3582 269.005 87.3582Z" fill="#FFB8B8"/>
<path fill-rule="evenodd" clip-rule="evenodd" d="M279.175 115.999C278.886 117.175 278.597 118.211 278.312 119.116V119.119C277.234 122.568 276.242 124.173 275.656 124.885C275.506 125.091 275.321 125.272 275.107 125.42L250.291 119.014C250.291 119.014 251.105 111.1 253.139 109.216C255.173 107.331 254.359 97.1564 254.359 97.1564L260.868 95.2721C260.868 95.2721 266.91 95.0837 271.059 95.1101C272.361 95.1138 273.475 95.1402 274.159 95.2005C274.341 95.213 274.522 95.2369 274.7 95.2721C276.327 95.649 281.209 107.708 279.175 115.999Z" fill="#FFB8B8"/>
<path fill-rule="evenodd" clip-rule="evenodd" d="M267.987 119.579C267.987 119.579 262.496 96.4027 260.461 95.649C258.535 94.9354 254.766 96.7796 254.766 96.7796C254.766 96.7796 261.559 93.1995 264.977 119.579H267.987Z" fill="#2F2E41"/>
<path fill-rule="evenodd" clip-rule="evenodd" d="M278.313 119.116V119.119C277.234 122.568 276.242 124.173 275.656 124.885C274.232 117.367 271.295 101.272 271.059 95.1101C272.361 95.1139 273.476 95.1402 274.159 95.2005C274.428 99.8735 276.539 107.938 278.313 119.116Z" fill="#2F2E41"/>
<path fill-rule="evenodd" clip-rule="evenodd" d="M251.105 114.492C251.105 114.492 254.563 119.202 257.41 118.826C260.258 118.449 276.213 120.065 276.982 122.648L272.463 137.291V142.567C272.463 142.567 278.242 146.704 278.823 158.107C279.033 162.721 278.351 167.333 276.808 171.725L274.903 177.238C274.903 177.238 272.869 187.036 275.31 191.182C277.751 195.327 276.531 204.371 276.531 204.371C276.531 204.371 298.295 232.447 286.091 235.085C273.886 237.723 261.479 242.434 261.072 235.274C260.665 228.113 258.224 179.499 258.224 179.499C258.224 179.499 260.665 234.143 251.308 235.274C241.952 236.404 224.052 244.318 223.238 234.897C222.425 225.475 243.986 147.843 243.986 147.843C243.986 147.843 243.579 136.161 250.495 131.639L252.122 125.609C252.122 125.609 247.444 116.753 251.105 114.492Z" fill="#E2DD44"/>
<path fill-rule="evenodd" clip-rule="evenodd" d="M252.732 105.447L250.495 116.187V117.438L253.983 107.329L252.732 105.447Z" fill="#2F2E41"/>
<path fill-rule="evenodd" clip-rule="evenodd" d="M269.929 229.401C269.929 229.401 270.899 239.374 267.777 240.304C264.655 241.234 250.672 240.194 254.13 246.186C257.587 252.177 284.797 249.179 283.622 245.945C282.446 242.71 277.083 227.565 277.083 227.565L269.929 229.401Z" fill="#F2F2F2"/>
<path fill-rule="evenodd" clip-rule="evenodd" d="M234.943 230.155C234.943 230.155 235.914 240.128 232.791 241.058C229.669 241.988 215.686 240.948 219.144 246.939C222.602 252.931 249.812 249.932 248.636 246.698C247.461 243.464 242.098 228.318 242.098 228.318L234.943 230.155Z" fill="#F2F2F2"/>
<path fill-rule="evenodd" clip-rule="evenodd" d="M259.736 99.268C259.294 97.5586 257.636 96.3584 255.738 96.3734C253.032 96.4011 249.757 97.0218 250.495 99.9829C251.715 104.882 257.411 127.87 257.411 127.87L239.104 128.624C239.104 128.624 222.425 126.363 227.713 131.639C233.002 136.915 239.918 133.9 239.918 133.9C239.918 133.9 260.055 136.726 263.309 133.711C263.342 133.681 263.374 133.651 263.406 133.622C266.056 131.203 267.144 127.676 266.276 124.326L259.736 99.268Z" fill="#FFB8B8"/>
<path fill-rule="evenodd" clip-rule="evenodd" d="M265.752 66.3116C258.995 66.3116 253.518 73.3443 253.518 82.0195V93.0414H256.448L258.144 88.9577L257.72 93.0414H276.553L278.096 89.3289L277.71 93.0414H279.83V84.3872C279.83 74.4044 273.527 66.3116 265.752 66.3116Z" fill="#2F2E41"/>
<path fill-rule="evenodd" clip-rule="evenodd" d="M267.038 68.7544C265.548 66.9005 263.21 65.7956 260.715 65.7655H260.415C254.632 65.7655 249.943 70.6137 249.943 76.5943V76.5943H251.881L252.194 74.3875L252.653 76.5943H264.147L265.11 74.7273L264.869 76.5943H267.13C268.186 81.4486 266.669 86.3029 262.582 91.1572H266.434L268.36 87.4231L267.878 91.1572H275.221L276.666 82.5688C276.666 76.1369 272.631 70.6828 267.038 68.7544Z" fill="#2F2E41"/>
<path fill-rule="evenodd" clip-rule="evenodd" d="M185.269 0.650635H0.333252V114.492H164.103H185.269H216.526L185.269 85.5921V0.650635Z" fill="#F2F2F2"/>
<path d="M21.8513 57.0184H22.4953L19.7933 47.4004L14.6833 57.0184H15.3833L17.0073 53.9524H20.9833L21.8513 57.0184ZM17.3013 53.3924L19.6253 48.9684L20.8293 53.3924H17.3013ZM28.9484 52.4544C28.7944 52.1604 28.5564 51.8384 28.1504 51.5724C27.6744 51.2644 27.1844 51.1804 26.7224 51.1804C25.9244 51.1804 25.2244 51.4044 24.6224 51.9924C24.1184 52.4964 23.6844 53.2524 23.6844 54.3444C23.6844 55.3804 24.0624 56.0384 24.4124 56.4164C24.9304 56.9764 25.5744 57.1724 26.4004 57.1724C26.7504 57.1724 27.1564 57.1304 27.5904 56.9204C28.0804 56.6824 28.4164 56.2904 28.4864 56.2064L28.3884 57.0184H28.9484L30.2084 46.8124H29.6484L28.9484 52.4544ZM26.6804 51.7124C27.2544 51.7124 27.8004 51.9084 28.1784 52.2864C28.4864 52.5804 28.7944 53.0704 28.7944 53.8824C28.7944 54.6244 28.5704 55.4784 28.0244 56.0104C27.7444 56.2764 27.2264 56.6404 26.4004 56.6404C25.7704 56.6404 25.2804 56.4304 24.9304 56.0524C24.4964 55.6044 24.3004 54.9464 24.3004 54.3584C24.3004 53.5604 24.6364 52.8044 25.1124 52.3424C25.5044 51.9644 26.0504 51.7124 26.6804 51.7124ZM36.2082 52.4544C36.0542 52.1604 35.8162 51.8384 35.4102 51.5724C34.9342 51.2644 34.4442 51.1804 33.9822 51.1804C33.1842 51.1804 32.4842 51.4044 31.8822 51.9924C31.3782 52.4964 30.9442 53.2524 30.9442 54.3444C30.9442 55.3804 31.3222 56.0384 31.6722 56.4164C32.1902 56.9764 32.8342 57.1724 33.6602 57.1724C34.0102 57.1724 34.4162 57.1304 34.8502 56.9204C35.3402 56.6824 35.6762 56.2904 35.7462 56.2064L35.6482 57.0184H36.2082L37.4682 46.8124H36.9082L36.2082 52.4544ZM33.9402 51.7124C34.5142 51.7124 35.0602 51.9084 35.4382 52.2864C35.7462 52.5804 36.0542 53.0704 36.0542 53.8824C36.0542 54.6244 35.8302 55.4784 35.2842 56.0104C35.0042 56.2764 34.4862 56.6404 33.6602 56.6404C33.0302 56.6404 32.5402 56.4304 32.1902 56.0524C31.7562 55.6044 31.5602 54.9464 31.5602 54.3584C31.5602 53.5604 31.8962 52.8044 32.3722 52.3424C32.7642 51.9644 33.3102 51.7124 33.9402 51.7124ZM47.3655 47.6804H42.8855L41.7375 57.0184H42.3255H46.2175L46.2875 56.4584H42.4235L42.9415 52.1884H46.7215L46.7915 51.6284H43.0115L43.4315 48.2404H47.2955L47.3655 47.6804ZM47.0837 57.0184H47.7697L50.0937 54.3864L51.7737 57.0184H52.4317L50.4997 54.0224L52.9077 51.3064H52.2217L50.1497 53.6584L48.6377 51.3064H47.9797L49.7577 54.0224L47.0837 57.0184ZM54.2438 55.9964C54.3138 56.1084 54.5798 56.4864 54.9998 56.7664C55.4198 57.0324 55.9518 57.1724 56.4698 57.1724C57.5058 57.1724 58.1778 56.7104 58.5418 56.3464C59.1158 55.7864 59.5078 54.9184 59.5078 53.7844C59.5078 52.8184 59.1578 52.2304 58.8218 51.8804C58.4718 51.5304 57.8698 51.1804 56.9738 51.1804C56.4698 51.1804 55.9938 51.2784 55.5458 51.5304C55.1258 51.7684 54.8598 52.0484 54.6918 52.3004L54.8178 51.3064H54.2578L53.1798 60.2384H53.7398L54.2438 55.9964ZM56.4558 56.6404C55.9238 56.6404 55.4618 56.5004 55.0558 56.1084C54.7478 55.8004 54.4258 55.3104 54.4258 54.4844C54.4258 53.6164 54.7478 52.8604 55.2098 52.3984C55.6298 51.9784 56.2318 51.7124 56.9178 51.7124C57.6318 51.7124 58.0798 52.0344 58.2898 52.2444C58.6678 52.6084 58.9198 53.1404 58.9198 53.8824C58.9198 54.8344 58.5838 55.6324 58.0938 56.0804C57.7858 56.3604 57.2678 56.6404 56.4558 56.6404ZM66.2779 54.2324C66.3479 53.3504 66.2219 52.4544 65.5779 51.8384C65.1719 51.4464 64.5419 51.1804 63.7859 51.1804C62.8479 51.1804 62.1899 51.5584 61.7419 52.0064C61.1819 52.5664 60.7899 53.4064 60.7899 54.4704C60.7899 55.2124 60.9999 55.8844 61.5039 56.4164C62.0219 56.9764 62.6659 57.1724 63.4079 57.1724C64.1499 57.1724 64.6399 56.9484 64.9339 56.7524C65.3399 56.4864 65.7179 56.0384 65.9559 55.6184L65.5219 55.3384C65.3679 55.6604 65.0879 56.0104 64.7799 56.2344C64.3879 56.5144 63.8699 56.6404 63.4219 56.6404C62.6519 56.6404 62.2039 56.3044 61.9799 56.0804C61.5879 55.6884 61.2799 54.9744 61.4059 54.2324H66.2779ZM61.4899 53.7004C61.6019 53.1264 61.8679 52.6924 62.1479 52.3984C62.4279 52.1044 62.9599 51.7124 63.7859 51.7124C64.4439 51.7124 64.8779 51.9644 65.1439 52.2444C65.4519 52.5664 65.7039 53.0984 65.7179 53.7004H61.4899ZM67.6262 57.0184H68.1862L68.5502 54.0504C68.6622 53.1824 68.8442 52.5664 69.2642 52.1604C69.6142 51.8244 70.0202 51.7124 70.4402 51.7124C70.9442 51.7124 71.2522 51.8944 71.4062 52.0624C71.6582 52.3284 71.7142 52.6644 71.7142 52.9304C71.7142 53.0984 71.6862 53.2944 71.6442 53.6864L71.2382 57.0184H71.7982L72.2042 53.7704C72.2182 53.6164 72.2882 53.0424 72.2882 52.7624C72.2882 52.1744 72.0642 51.8384 71.8542 51.6284C71.6302 51.4044 71.2242 51.1804 70.5662 51.1804C70.1322 51.1804 69.7682 51.2644 69.4322 51.4884C69.2362 51.6144 68.9702 51.8384 68.7742 52.2024L68.8862 51.3064H68.3262L67.6262 57.0184ZM77.4455 52.1044C77.3475 51.7684 77.1375 51.5584 76.9555 51.4324C76.6475 51.2224 76.3115 51.1804 76.0315 51.1804C75.5555 51.1804 75.1355 51.3064 74.7715 51.6844C74.5055 51.9504 74.3515 52.3004 74.3515 52.7344C74.3515 53.0844 74.4635 53.3364 74.6875 53.5604C74.8555 53.7284 75.2195 53.9524 75.5135 54.0784L75.8495 54.2184C76.2695 54.4004 76.4515 54.5404 76.5355 54.6244C76.7315 54.8204 76.8015 55.0584 76.8015 55.3104C76.8015 55.6744 76.6335 56.0384 76.3955 56.2764C76.1435 56.5144 75.7655 56.6404 75.3455 56.6404C74.9115 56.6404 74.6315 56.4724 74.4495 56.2904C74.1415 55.9824 74.0855 55.5764 74.0715 55.4924L73.5115 55.6604C73.5815 56.0384 73.7635 56.4304 74.0155 56.6824C74.4355 57.1024 74.9955 57.1724 75.3315 57.1724C76.1015 57.1724 76.6055 56.8784 76.8995 56.5704C77.0955 56.3604 77.4035 55.9264 77.4035 55.2404C77.4035 54.9464 77.3335 54.5544 77.0255 54.2324C76.9415 54.1484 76.7315 53.9524 76.1855 53.7284L75.7515 53.5464C75.3875 53.3924 75.2335 53.2664 75.1635 53.1964C74.9955 53.0144 74.9395 52.8184 74.9395 52.6504C74.9395 52.4124 75.0375 52.1744 75.1915 52.0204C75.3315 51.8804 75.5835 51.7124 75.9895 51.7124C76.3675 51.7124 76.5775 51.8664 76.6195 51.8944C76.7735 52.0064 76.8855 52.1884 76.9415 52.3564L77.4455 52.1044ZM84.0787 54.2324C84.1487 53.3504 84.0227 52.4544 83.3787 51.8384C82.9727 51.4464 82.3427 51.1804 81.5867 51.1804C80.6487 51.1804 79.9907 51.5584 79.5427 52.0064C78.9827 52.5664 78.5907 53.4064 78.5907 54.4704C78.5907 55.2124 78.8007 55.8844 79.3047 56.4164C79.8227 56.9764 80.4667 57.1724 81.2087 57.1724C81.9507 57.1724 82.4407 56.9484 82.7347 56.7524C83.1407 56.4864 83.5187 56.0384 83.7567 55.6184L83.3227 55.3384C83.1687 55.6604 82.8887 56.0104 82.5807 56.2344C82.1887 56.5144 81.6707 56.6404 81.2227 56.6404C80.4527 56.6404 80.0047 56.3044 79.7807 56.0804C79.3887 55.6884 79.0807 54.9744 79.2067 54.2324H84.0787ZM79.2907 53.7004C79.4027 53.1264 79.6687 52.6924 79.9487 52.3984C80.2287 52.1044 80.7607 51.7124 81.5867 51.7124C82.2447 51.7124 82.6787 51.9644 82.9447 52.2444C83.2527 52.5664 83.5047 53.0984 83.5187 53.7004H79.2907ZM91.3125 51.8384L91.3825 51.3064H89.9545L90.2765 48.7024C90.3745 47.8904 90.5285 47.5964 90.6825 47.4424C90.8225 47.3024 91.0465 47.1764 91.3965 47.1764C91.4525 47.1764 91.6485 47.1764 91.8865 47.2464L91.9425 46.7284C91.7325 46.6724 91.5225 46.6444 91.3405 46.6444C90.8505 46.6444 90.5005 46.8264 90.2905 47.0364C89.9825 47.3444 89.8145 47.8624 89.7305 48.5904L89.3945 51.3064H88.7505L88.6805 51.8384H89.3245L88.6945 57.0184H89.2545L89.8845 51.8384H91.3125ZM94.8807 51.1804C94.0827 51.1804 93.2287 51.4604 92.6267 52.0344C92.0387 52.6084 91.6747 53.5184 91.6747 54.4004C91.6747 55.2124 91.9827 55.9264 92.4307 56.3884C92.9767 56.9624 93.6767 57.1724 94.4467 57.1724C95.5947 57.1724 96.3227 56.7664 96.7847 56.3324C97.3027 55.8424 97.7227 55.0444 97.7227 53.9524C97.7227 53.0284 97.4287 52.3984 97.0087 51.9784C96.5047 51.4744 95.6787 51.1804 94.8807 51.1804ZM94.5307 56.6404C93.6907 56.6404 93.1867 56.3044 92.9067 56.0104C92.5147 55.6044 92.2627 54.9884 92.2627 54.3164C92.2627 53.6024 92.5427 52.8464 93.0887 52.3564C93.5087 51.9784 94.0967 51.7124 94.8247 51.7124C95.6227 51.7124 96.1827 52.0204 96.5327 52.3844C96.6867 52.5524 97.1347 53.0704 97.1347 54.0084C97.1347 54.9744 96.7007 55.6184 96.2947 55.9964C95.8187 56.4304 95.2307 56.6404 94.5307 56.6404ZM99.0305 57.0184H99.5905L99.9545 54.1484C100.038 53.4484 100.164 52.5664 100.626 52.0764C100.836 51.8524 101.13 51.7124 101.41 51.7124C101.634 51.7124 101.76 51.7824 101.816 51.8244L102.152 51.3204C101.914 51.1944 101.676 51.1804 101.592 51.1804C101.284 51.1804 100.976 51.2784 100.752 51.4324C100.514 51.5864 100.318 51.8384 100.206 52.0484L100.29 51.3064H99.7305L99.0305 57.0184ZM108.119 47.6804L107.587 52.0204H106.537L106.453 52.5804H107.503L107.349 53.8544H106.299L106.229 54.4144H107.279L106.971 57.0184H107.587L107.909 54.4004H110.247L110.317 53.8404H107.979L108.133 52.5804H109.337C110.653 52.5804 111.339 52.1744 111.703 51.7964C112.109 51.3764 112.389 50.6904 112.389 49.9064C112.389 49.1084 112.095 48.6184 111.815 48.3384C111.227 47.7364 110.373 47.6804 109.925 47.6804H108.119ZM108.665 48.2404H109.659C110.191 48.2404 110.807 48.2404 111.311 48.7864C111.661 49.1644 111.717 49.5844 111.717 49.9344C111.717 50.7184 111.451 51.1944 111.157 51.4744C110.653 51.9504 109.967 52.0204 109.435 52.0204H108.203L108.665 48.2404ZM120.325 47.6804H116.755L115.061 51.6424C115.649 51.3064 116.181 51.2364 116.601 51.2364C117.441 51.2364 117.973 51.5724 118.281 51.8944C118.799 52.4124 118.897 53.0564 118.897 53.5884C118.897 54.5964 118.547 55.2964 118.071 55.8004C117.483 56.4024 116.825 56.6124 116.041 56.6124C115.565 56.6124 115.033 56.5564 114.585 56.2764C114.249 56.0804 113.955 55.7584 113.759 55.4084L113.185 55.6324C113.451 56.1084 113.815 56.4724 114.179 56.7104C114.697 57.0464 115.215 57.1724 115.887 57.1724C116.699 57.1724 117.707 57.0324 118.519 56.2064C119.149 55.5764 119.555 54.6244 119.555 53.4624C119.555 52.9444 119.471 52.0624 118.757 51.3904C118.379 51.0264 117.707 50.6764 116.741 50.6764C116.489 50.6764 116.265 50.7044 116.027 50.7604L117.119 48.2404H120.255L120.325 47.6804ZM125.181 47.5544C124.355 47.5544 123.543 47.8764 122.829 48.6184C121.695 49.7944 121.191 51.6424 121.191 53.2244C121.191 54.5684 121.611 55.7864 122.297 56.4724C122.759 56.9344 123.305 57.1724 124.061 57.1724C125.055 57.1724 125.769 56.8224 126.385 56.2064C127.729 54.8904 128.065 52.7344 128.065 51.5164C128.065 50.5504 127.841 49.1644 127.015 48.3104C126.581 47.8624 125.979 47.5544 125.181 47.5544ZM124.075 56.6124C123.487 56.6124 123.095 56.4304 122.731 56.0664C122.185 55.5204 121.821 54.5824 121.821 53.2104C121.821 51.6564 122.353 49.9204 123.333 48.9124C123.795 48.4364 124.369 48.1144 125.125 48.1144C125.699 48.1144 126.161 48.2964 126.553 48.7164C127.141 49.3604 127.421 50.4104 127.421 51.4604C127.421 52.6784 127.057 54.7224 125.881 55.8704C125.377 56.3604 124.831 56.6124 124.075 56.6124ZM132.912 51.3064L132.212 57.0184H132.772L133.472 51.3064H132.912ZM133.36 49.9204C133.528 49.9204 133.654 49.8644 133.766 49.7524C133.892 49.6264 133.934 49.4864 133.934 49.3324C133.934 49.2344 133.906 49.1084 133.808 49.0104C133.752 48.9544 133.64 48.8844 133.486 48.8844C133.388 48.8844 133.234 48.9124 133.108 49.0384C132.996 49.1364 132.926 49.2904 132.926 49.4864C132.926 49.6404 132.982 49.7384 133.038 49.7944C133.08 49.8364 133.178 49.9204 133.36 49.9204ZM134.782 57.0184H135.342L135.706 54.0504C135.818 53.1824 136 52.5664 136.42 52.1604C136.77 51.8244 137.176 51.7124 137.596 51.7124C138.1 51.7124 138.408 51.8944 138.562 52.0624C138.814 52.3284 138.87 52.6644 138.87 52.9304C138.87 53.0984 138.842 53.2944 138.8 53.6864L138.394 57.0184H138.954L139.36 53.7704C139.374 53.6164 139.444 53.0424 139.444 52.7624C139.444 52.1744 139.22 51.8384 139.01 51.6284C138.786 51.4044 138.38 51.1804 137.722 51.1804C137.288 51.1804 136.924 51.2644 136.588 51.4884C136.392 51.6144 136.126 51.8384 135.93 52.2024L136.042 51.3064H135.482L134.782 57.0184ZM24.2873 66.7724C23.9513 66.4224 23.5313 66.1284 23.1253 65.9324C22.9293 65.8484 22.2573 65.5544 21.2213 65.5544C20.1853 65.5544 18.7433 65.8204 17.4693 67.0384C16.2793 68.1724 15.8173 69.5864 15.8173 70.8184C15.8173 72.1904 16.3913 73.2404 17.1053 73.9544C17.9733 74.8224 19.0093 75.1724 20.2133 75.1724C21.1653 75.1724 21.7953 74.9624 22.0613 74.8504C22.5373 74.6544 23.0273 74.3324 23.4053 74.0104L23.5033 73.1984C23.0973 73.6044 22.6213 73.9544 22.0333 74.2204C21.4873 74.4724 20.9133 74.6124 20.2273 74.6124C19.1913 74.6124 18.2253 74.2064 17.5673 73.5344C16.9093 72.8624 16.4893 71.8824 16.4893 70.8464C16.4893 69.6984 16.9653 68.4104 17.8893 67.4864C18.8553 66.5204 20.1153 66.1144 21.2073 66.1144C21.4173 66.1144 22.2153 66.1424 22.9433 66.5204C23.6293 66.8844 24.0913 67.4584 24.1893 67.5844L24.2873 66.7724ZM30.2743 70.4264C30.1063 70.1044 29.8263 69.7824 29.4903 69.5584C29.0563 69.2644 28.5523 69.1804 28.1043 69.1804C27.0683 69.1804 26.4103 69.5584 25.9903 69.9644C25.3463 70.5804 25.0243 71.5044 25.0243 72.4424C25.0243 73.5484 25.5003 74.1924 25.8503 74.5144C26.3823 75.0184 27.0123 75.1724 27.6703 75.1724C28.2163 75.1724 28.6503 75.0464 28.9863 74.8784C29.3223 74.7104 29.6023 74.4444 29.8263 74.1364L29.7143 75.0184H30.2743L30.9743 69.3064H30.4143L30.2743 70.4264ZM27.9923 69.7124C28.8183 69.7124 29.2943 70.0344 29.5323 70.2864C29.8963 70.6504 30.1203 71.2384 30.1203 71.9244C30.1203 72.5404 29.9243 73.6044 29.0843 74.2204C28.6783 74.5144 28.2583 74.6404 27.7263 74.6404C27.3203 74.6404 26.7463 74.5564 26.2703 74.1084C25.8923 73.7444 25.6123 73.1284 25.6123 72.4004C25.6123 71.5884 25.9203 70.8044 26.3823 70.3424C26.8163 69.9084 27.3623 69.7124 27.9923 69.7124ZM34.5104 69.8384L34.5804 69.3064H33.5864L33.8384 67.2624H33.2784L33.0264 69.3064H32.3964L32.3264 69.8384H32.9564L32.3264 75.0184H32.8864L33.5164 69.8384H34.5104ZM40.4791 72.2324C40.5491 71.3504 40.4231 70.4544 39.7791 69.8384C39.3731 69.4464 38.7431 69.1804 37.9871 69.1804C37.0491 69.1804 36.3911 69.5584 35.9431 70.0064C35.3831 70.5664 34.9911 71.4064 34.9911 72.4704C34.9911 73.2124 35.2011 73.8844 35.7051 74.4164C36.2231 74.9764 36.8671 75.1724 37.6091 75.1724C38.3511 75.1724 38.8411 74.9484 39.1351 74.7524C39.5411 74.4864 39.9191 74.0384 40.1571 73.6184L39.7231 73.3384C39.5691 73.6604 39.2891 74.0104 38.9811 74.2344C38.5891 74.5144 38.0711 74.6404 37.6231 74.6404C36.8531 74.6404 36.4051 74.3044 36.1811 74.0804C35.7891 73.6884 35.4811 72.9744 35.6071 72.2324H40.4791ZM35.6911 71.7004C35.8031 71.1264 36.0691 70.6924 36.3491 70.3984C36.6291 70.1044 37.1611 69.7124 37.9871 69.7124C38.6451 69.7124 39.0791 69.9644 39.3451 70.2444C39.6531 70.5664 39.9051 71.0984 39.9191 71.7004H35.6911ZM47.2313 69.3064L47.1053 70.3004C46.8393 69.8944 46.5313 69.6704 46.3913 69.5724C45.8593 69.2364 45.2853 69.1804 44.8373 69.1804C44.0393 69.1804 43.3253 69.3624 42.6813 70.0344C42.0513 70.6784 41.7573 71.5744 41.7573 72.4424C41.7573 73.3384 42.0793 74.0104 42.4853 74.4444C43.0033 74.9904 43.6613 75.1724 44.4033 75.1724C44.8233 75.1724 45.2713 75.0884 45.7333 74.8504C46.1253 74.6544 46.4193 74.3884 46.6573 74.0384L46.5593 74.8504C46.4613 75.6064 46.2793 76.5304 45.7333 77.0764C45.4673 77.3424 44.9353 77.7064 44.0113 77.7064C43.1713 77.7064 42.6953 77.4124 42.4293 77.1324C42.0933 76.7824 41.9393 76.2504 41.9253 75.7884H41.3373C41.3513 76.5444 41.6593 77.1884 42.0513 77.5664C42.3873 77.9024 42.9893 78.2384 43.9413 78.2384C44.9073 78.2384 45.6913 77.9024 46.1813 77.3844C46.8673 76.6704 47.0213 75.6344 47.1193 74.8504L47.7913 69.3064H47.2313ZM44.8513 69.7124C45.4253 69.7124 45.9853 69.9224 46.3353 70.2724C46.6713 70.5944 46.9373 71.1404 46.9373 71.8824C46.9373 72.6944 46.6573 73.4784 46.1813 73.9824C45.6773 74.5004 45.0893 74.6404 44.5433 74.6404C43.8713 74.6404 43.3673 74.4584 42.9753 74.0384C42.6953 73.7304 42.3733 73.2264 42.3733 72.4424C42.3733 71.6304 42.6813 70.8184 43.1853 70.3424C43.6333 69.9224 44.2353 69.7124 44.8513 69.7124ZM52.2928 69.1804C51.4948 69.1804 50.6408 69.4604 50.0388 70.0344C49.4508 70.6084 49.0868 71.5184 49.0868 72.4004C49.0868 73.2124 49.3948 73.9264 49.8428 74.3884C50.3888 74.9624 51.0888 75.1724 51.8588 75.1724C53.0068 75.1724 53.7348 74.7664 54.1968 74.3324C54.7148 73.8424 55.1348 73.0444 55.1348 71.9524C55.1348 71.0284 54.8408 70.3984 54.4208 69.9784C53.9168 69.4744 53.0908 69.1804 52.2928 69.1804ZM51.9428 74.6404C51.1028 74.6404 50.5988 74.3044 50.3188 74.0104C49.9268 73.6044 49.6748 72.9884 49.6748 72.3164C49.6748 71.6024 49.9548 70.8464 50.5008 70.3564C50.9208 69.9784 51.5088 69.7124 52.2368 69.7124C53.0348 69.7124 53.5948 70.0204 53.9448 70.3844C54.0988 70.5524 54.5468 71.0704 54.5468 72.0084C54.5468 72.9744 54.1128 73.6184 53.7068 73.9964C53.2308 74.4304 52.6428 74.6404 51.9428 74.6404ZM56.4426 75.0184H57.0026L57.3666 72.1484C57.4506 71.4484 57.5766 70.5664 58.0386 70.0764C58.2486 69.8524 58.5426 69.7124 58.8226 69.7124C59.0466 69.7124 59.1726 69.7824 59.2286 69.8244L59.5646 69.3204C59.3266 69.1944 59.0886 69.1804 59.0046 69.1804C58.6966 69.1804 58.3886 69.2784 58.1646 69.4324C57.9266 69.5864 57.7306 69.8384 57.6186 70.0484L57.7026 69.3064H57.1426L56.4426 75.0184ZM60.4367 78.2384H61.0807L65.9247 69.3064H65.2527L62.5507 74.3884L60.7727 69.3064H60.1567L62.1587 75.1164L60.4367 78.2384ZM75.3346 66.2404L75.4046 65.6804H69.9446L69.8746 66.2404H72.2966L71.2186 75.0184H71.8346L72.9126 66.2404H75.3346ZM74.7629 75.0184H75.3229L75.6869 72.1484C75.7709 71.4484 75.8969 70.5664 76.3589 70.0764C76.5689 69.8524 76.8629 69.7124 77.1429 69.7124C77.3669 69.7124 77.4929 69.7824 77.5489 69.8244L77.8849 69.3204C77.6469 69.1944 77.4089 69.1804 77.3249 69.1804C77.0169 69.1804 76.7089 69.2784 76.4849 69.4324C76.2469 69.5864 76.0509 69.8384 75.9389 70.0484L76.0229 69.3064H75.4629L74.7629 75.0184ZM83.3622 70.4264C83.1942 70.1044 82.9142 69.7824 82.5782 69.5584C82.1442 69.2644 81.6402 69.1804 81.1922 69.1804C80.1562 69.1804 79.4982 69.5584 79.0782 69.9644C78.4342 70.5804 78.1122 71.5044 78.1122 72.4424C78.1122 73.5484 78.5882 74.1924 78.9382 74.5144C79.4702 75.0184 80.1002 75.1724 80.7582 75.1724C81.3042 75.1724 81.7382 75.0464 82.0742 74.8784C82.4102 74.7104 82.6902 74.4444 82.9142 74.1364L82.8022 75.0184H83.3622L84.0622 69.3064H83.5022L83.3622 70.4264ZM81.0802 69.7124C81.9062 69.7124 82.3822 70.0344 82.6202 70.2864C82.9842 70.6504 83.2082 71.2384 83.2082 71.9244C83.2082 72.5404 83.0122 73.6044 82.1722 74.2204C81.7662 74.5144 81.3462 74.6404 80.8142 74.6404C80.4082 74.6404 79.8342 74.5564 79.3582 74.1084C78.9802 73.7444 78.7002 73.1284 78.7002 72.4004C78.7002 71.5884 79.0082 70.8044 79.4702 70.3424C79.9042 69.9084 80.4502 69.7124 81.0802 69.7124ZM85.1763 69.3064L87.0663 75.3684L90.4123 69.3064H89.7683L87.1923 74.0524L85.7643 69.3064H85.1763ZM96.3013 72.2324C96.3713 71.3504 96.2453 70.4544 95.6013 69.8384C95.1953 69.4464 94.5653 69.1804 93.8093 69.1804C92.8713 69.1804 92.2133 69.5584 91.7653 70.0064C91.2053 70.5664 90.8133 71.4064 90.8133 72.4704C90.8133 73.2124 91.0233 73.8844 91.5273 74.4164C92.0453 74.9764 92.6893 75.1724 93.4313 75.1724C94.1733 75.1724 94.6633 74.9484 94.9573 74.7524C95.3633 74.4864 95.7413 74.0384 95.9793 73.6184L95.5453 73.3384C95.3913 73.6604 95.1113 74.0104 94.8033 74.2344C94.4113 74.5144 93.8933 74.6404 93.4453 74.6404C92.6753 74.6404 92.2273 74.3044 92.0033 74.0804C91.6113 73.6884 91.3033 72.9744 91.4293 72.2324H96.3013ZM91.5133 71.7004C91.6253 71.1264 91.8913 70.6924 92.1713 70.3984C92.4513 70.1044 92.9833 69.7124 93.8093 69.7124C94.4673 69.7124 94.9013 69.9644 95.1673 70.2444C95.4753 70.5664 95.7273 71.0984 95.7413 71.7004H91.5133ZM98.9096 64.8124L97.6496 75.0184H98.2096L99.4696 64.8124H98.9096ZM106.105 69.8384L106.175 69.3064H104.747L105.069 66.7024C105.167 65.8904 105.321 65.5964 105.475 65.4424C105.615 65.3024 105.839 65.1764 106.189 65.1764C106.245 65.1764 106.441 65.1764 106.679 65.2464L106.735 64.7284C106.525 64.6724 106.315 64.6444 106.133 64.6444C105.643 64.6444 105.293 64.8264 105.083 65.0364C104.775 65.3444 104.607 65.8624 104.523 66.5904L104.187 69.3064H103.543L103.473 69.8384H104.117L103.487 75.0184H104.047L104.677 69.8384H106.105ZM109.674 69.1804C108.876 69.1804 108.022 69.4604 107.42 70.0344C106.832 70.6084 106.468 71.5184 106.468 72.4004C106.468 73.2124 106.776 73.9264 107.224 74.3884C107.77 74.9624 108.47 75.1724 109.24 75.1724C110.388 75.1724 111.116 74.7664 111.578 74.3324C112.096 73.8424 112.516 73.0444 112.516 71.9524C112.516 71.0284 112.222 70.3984 111.802 69.9784C111.298 69.4744 110.472 69.1804 109.674 69.1804ZM109.324 74.6404C108.484 74.6404 107.98 74.3044 107.7 74.0104C107.308 73.6044 107.056 72.9884 107.056 72.3164C107.056 71.6024 107.336 70.8464 107.882 70.3564C108.302 69.9784 108.89 69.7124 109.618 69.7124C110.416 69.7124 110.976 70.0204 111.326 70.3844C111.48 70.5524 111.928 71.0704 111.928 72.0084C111.928 72.9744 111.494 73.6184 111.088 73.9964C110.612 74.4304 110.024 74.6404 109.324 74.6404ZM113.823 75.0184H114.383L114.747 72.1484C114.831 71.4484 114.957 70.5664 115.419 70.0764C115.629 69.8524 115.923 69.7124 116.203 69.7124C116.427 69.7124 116.553 69.7824 116.609 69.8244L116.945 69.3204C116.707 69.1944 116.469 69.1804 116.385 69.1804C116.077 69.1804 115.769 69.2784 115.545 69.4324C115.307 69.5864 115.111 69.8384 114.999 70.0484L115.083 69.3064H114.523L113.823 75.0184ZM126.454 66.2404L126.524 65.6804H121.064L120.994 66.2404H123.416L122.338 75.0184H122.954L124.032 66.2404H126.454ZM125.882 75.0184H126.442L126.806 72.0504C126.932 70.9724 127.282 70.4544 127.534 70.2024C127.772 69.9644 128.15 69.7124 128.738 69.7124C129.158 69.7124 129.466 69.8664 129.648 70.0484C130.012 70.4124 129.998 70.9444 129.942 71.4204L129.494 75.0184H130.054L130.502 71.4204C130.558 70.9304 130.642 70.1464 130.068 69.6144C129.774 69.3344 129.326 69.1804 128.808 69.1804C128.332 69.1804 127.94 69.3204 127.66 69.5164C127.436 69.6704 127.198 69.9224 127.03 70.2024L127.702 64.8124H127.142L125.882 75.0184ZM132.173 69.3064L131.753 72.7784C131.697 73.2404 131.613 74.0524 132.187 74.6544C132.607 75.0884 133.153 75.1724 133.615 75.1724C134.063 75.1724 134.749 75.1164 135.239 74.5704C135.645 74.1084 135.729 73.5064 135.813 72.9044L136.289 69.3064H135.729L135.309 72.7504C135.211 73.6044 134.987 73.9964 134.805 74.1924C134.553 74.4584 134.147 74.6404 133.643 74.6404C133.293 74.6404 132.915 74.5284 132.663 74.3044C132.299 73.9684 132.229 73.4084 132.313 72.7504L132.733 69.3064H132.173ZM137.599 75.0184H138.159L138.523 72.1484C138.607 71.4484 138.733 70.5664 139.195 70.0764C139.405 69.8524 139.699 69.7124 139.979 69.7124C140.203 69.7124 140.329 69.7824 140.385 69.8244L140.721 69.3204C140.483 69.1944 140.245 69.1804 140.161 69.1804C139.853 69.1804 139.545 69.2784 139.321 69.4324C139.083 69.5864 138.887 69.8384 138.775 70.0484L138.859 69.3064H138.299L137.599 75.0184ZM144.41 70.1044C144.312 69.7684 144.102 69.5584 143.92 69.4324C143.612 69.2224 143.276 69.1804 142.996 69.1804C142.52 69.1804 142.1 69.3064 141.736 69.6844C141.47 69.9504 141.316 70.3004 141.316 70.7344C141.316 71.0844 141.428 71.3364 141.652 71.5604C141.82 71.7284 142.184 71.9524 142.478 72.0784L142.814 72.2184C143.234 72.4004 143.416 72.5404 143.5 72.6244C143.696 72.8204 143.766 73.0584 143.766 73.3104C143.766 73.6744 143.598 74.0384 143.36 74.2764C143.108 74.5144 142.73 74.6404 142.31 74.6404C141.876 74.6404 141.596 74.4724 141.414 74.2904C141.106 73.9824 141.05 73.5764 141.036 73.4924L140.476 73.6604C140.546 74.0384 140.728 74.4304 140.98 74.6824C141.4 75.1024 141.96 75.1724 142.296 75.1724C143.066 75.1724 143.57 74.8784 143.864 74.5704C144.06 74.3604 144.368 73.9264 144.368 73.2404C144.368 72.9464 144.298 72.5544 143.99 72.2324C143.906 72.1484 143.696 71.9524 143.15 71.7284L142.716 71.5464C142.352 71.3924 142.198 71.2664 142.128 71.1964C141.96 71.0144 141.904 70.8184 141.904 70.6504C141.904 70.4124 142.002 70.1744 142.156 70.0204C142.296 69.8804 142.548 69.7124 142.954 69.7124C143.332 69.7124 143.542 69.8664 143.584 69.8944C143.738 70.0064 143.85 70.1884 143.906 70.3564L144.41 70.1044ZM150.82 70.4544C150.666 70.1604 150.428 69.8384 150.022 69.5724C149.546 69.2644 149.056 69.1804 148.594 69.1804C147.796 69.1804 147.096 69.4044 146.494 69.9924C145.99 70.4964 145.556 71.2524 145.556 72.3444C145.556 73.3804 145.934 74.0384 146.284 74.4164C146.802 74.9764 147.446 75.1724 148.272 75.1724C148.622 75.1724 149.028 75.1304 149.462 74.9204C149.952 74.6824 150.288 74.2904 150.358 74.2064L150.26 75.0184H150.82L152.08 64.8124H151.52L150.82 70.4544ZM148.552 69.7124C149.126 69.7124 149.672 69.9084 150.05 70.2864C150.358 70.5804 150.666 71.0704 150.666 71.8824C150.666 72.6244 150.442 73.4784 149.896 74.0104C149.616 74.2764 149.098 74.6404 148.272 74.6404C147.642 74.6404 147.152 74.4304 146.802 74.0524C146.368 73.6044 146.172 72.9464 146.172 72.3584C146.172 71.5604 146.508 70.8044 146.984 70.3424C147.376 69.9644 147.922 69.7124 148.552 69.7124ZM158.065 70.4264C157.897 70.1044 157.617 69.7824 157.281 69.5584C156.847 69.2644 156.343 69.1804 155.895 69.1804C154.859 69.1804 154.201 69.5584 153.781 69.9644C153.137 70.5804 152.815 71.5044 152.815 72.4424C152.815 73.5484 153.291 74.1924 153.641 74.5144C154.173 75.0184 154.803 75.1724 155.461 75.1724C156.007 75.1724 156.441 75.0464 156.777 74.8784C157.113 74.7104 157.393 74.4444 157.617 74.1364L157.505 75.0184H158.065L158.765 69.3064H158.205L158.065 70.4264ZM155.783 69.7124C156.609 69.7124 157.085 70.0344 157.323 70.2864C157.687 70.6504 157.911 71.2384 157.911 71.9244C157.911 72.5404 157.715 73.6044 156.875 74.2204C156.469 74.5144 156.049 74.6404 155.517 74.6404C155.111 74.6404 154.537 74.5564 154.061 74.1084C153.683 73.7444 153.403 73.1284 153.403 72.4004C153.403 71.5884 153.711 70.8044 154.173 70.3424C154.607 69.9084 155.153 69.7124 155.783 69.7124ZM160.159 78.2384H160.803L165.647 69.3064H164.975L162.273 74.3884L160.495 69.3064H159.879L161.881 75.1164L160.159 78.2384Z" fill="black"/>
<path d="M25.2627 17.6797H21.3428V28.3408H18.7061V17.6797H14.8389V15.5439H25.2627V17.6797ZM31.3711 21.2129C31.0254 21.166 30.7207 21.1426 30.457 21.1426C29.4961 21.1426 28.8662 21.4678 28.5674 22.1182V28.3408H26.0273V18.8311H28.4268L28.4971 19.9648C29.0068 19.0918 29.7129 18.6553 30.6152 18.6553C30.8965 18.6553 31.1602 18.6934 31.4062 18.7695L31.3711 21.2129ZM36.3105 24.7461L38.0684 18.8311H40.793L36.9697 29.8174L36.7588 30.3184C36.1904 31.5605 35.2529 32.1816 33.9463 32.1816C33.5771 32.1816 33.2021 32.126 32.8213 32.0146V30.0898L33.208 30.0986C33.6885 30.0986 34.0459 30.0254 34.2803 29.8789C34.5205 29.7324 34.708 29.4893 34.8428 29.1494L35.1416 28.3672L31.8105 18.8311H34.5439L36.3105 24.7461ZM51.4277 25.7129C51.4277 25.4023 51.2725 25.1592 50.9619 24.9834C50.6572 24.8018 50.165 24.6406 49.4854 24.5C47.2236 24.0254 46.0928 23.0645 46.0928 21.6172C46.0928 20.7734 46.4414 20.0703 47.1387 19.5078C47.8418 18.9395 48.7588 18.6553 49.8896 18.6553C51.0967 18.6553 52.0605 18.9395 52.7812 19.5078C53.5078 20.0762 53.8711 20.8145 53.8711 21.7227H51.3311C51.3311 21.3594 51.2139 21.0605 50.9795 20.8262C50.7451 20.5859 50.3789 20.4658 49.8809 20.4658C49.4531 20.4658 49.1221 20.5625 48.8877 20.7559C48.6533 20.9492 48.5361 21.1953 48.5361 21.4941C48.5361 21.7754 48.668 22.0039 48.9316 22.1797C49.2012 22.3496 49.6523 22.499 50.2852 22.6279C50.918 22.751 51.4512 22.8916 51.8848 23.0498C53.2266 23.542 53.8975 24.3945 53.8975 25.6074C53.8975 26.4746 53.5254 27.1777 52.7812 27.7168C52.0371 28.25 51.0762 28.5166 49.8984 28.5166C49.1016 28.5166 48.3926 28.376 47.7715 28.0947C47.1562 27.8076 46.6729 27.418 46.3213 26.9258C45.9697 26.4277 45.7939 25.8916 45.7939 25.3174H48.2021C48.2256 25.7686 48.3926 26.1143 48.7031 26.3545C49.0137 26.5947 49.4297 26.7148 49.9512 26.7148C50.4375 26.7148 50.8037 26.624 51.0498 26.4424C51.3018 26.2549 51.4277 26.0117 51.4277 25.7129ZM61.0518 28.3408C60.9346 28.1123 60.8496 27.8281 60.7969 27.4883C60.1816 28.1738 59.3818 28.5166 58.3975 28.5166C57.4658 28.5166 56.6924 28.2471 56.0771 27.708C55.4678 27.1689 55.1631 26.4893 55.1631 25.6689C55.1631 24.6611 55.5352 23.8877 56.2793 23.3486C57.0293 22.8096 58.1104 22.5371 59.5225 22.5312H60.6914V21.9863C60.6914 21.5469 60.5771 21.1953 60.3486 20.9316C60.126 20.668 59.7715 20.5361 59.2852 20.5361C58.8574 20.5361 58.5205 20.6387 58.2744 20.8438C58.0342 21.0488 57.9141 21.3301 57.9141 21.6875H55.374C55.374 21.1367 55.5439 20.627 55.8838 20.1582C56.2236 19.6895 56.7041 19.3232 57.3252 19.0596C57.9463 18.79 58.6436 18.6553 59.417 18.6553C60.5889 18.6553 61.5176 18.9512 62.2031 19.543C62.8945 20.1289 63.2402 20.9551 63.2402 22.0215V26.1436C63.2461 27.0459 63.3721 27.7285 63.6182 28.1914V28.3408H61.0518ZM58.9512 26.5742C59.3262 26.5742 59.6719 26.4922 59.9883 26.3281C60.3047 26.1582 60.5391 25.9326 60.6914 25.6514V24.0166H59.7422C58.4707 24.0166 57.7939 24.4561 57.7119 25.335L57.7031 25.4844C57.7031 25.8008 57.8145 26.0615 58.0371 26.2666C58.2598 26.4717 58.5645 26.5742 58.9512 26.5742ZM68.6016 24.7461L70.3594 18.8311H73.084L69.2607 29.8174L69.0498 30.3184C68.4814 31.5605 67.5439 32.1816 66.2373 32.1816C65.8682 32.1816 65.4932 32.126 65.1123 32.0146V30.0898L65.499 30.0986C65.9795 30.0986 66.3369 30.0254 66.5713 29.8789C66.8115 29.7324 66.999 29.4893 67.1338 29.1494L67.4326 28.3672L64.1016 18.8311H66.835L68.6016 24.7461ZM76.7666 28.3408H74.2178V18.8311H76.7666V28.3408ZM74.0684 16.3701C74.0684 15.9893 74.1943 15.6758 74.4463 15.4297C74.7041 15.1836 75.0527 15.0605 75.4922 15.0605C75.9258 15.0605 76.2715 15.1836 76.5293 15.4297C76.7871 15.6758 76.916 15.9893 76.916 16.3701C76.916 16.7568 76.7842 17.0732 76.5205 17.3193C76.2627 17.5654 75.9199 17.6885 75.4922 17.6885C75.0645 17.6885 74.7188 17.5654 74.4551 17.3193C74.1973 17.0732 74.0684 16.7568 74.0684 16.3701ZM81.2051 18.8311L81.2842 19.9297C81.9639 19.0801 82.875 18.6553 84.0176 18.6553C85.0254 18.6553 85.7754 18.9512 86.2676 19.543C86.7598 20.1348 87.0117 21.0195 87.0234 22.1973V28.3408H84.4834V22.2588C84.4834 21.7197 84.3662 21.3301 84.1318 21.0898C83.8975 20.8438 83.5078 20.7207 82.9629 20.7207C82.248 20.7207 81.7119 21.0254 81.3545 21.6348V28.3408H78.8145V18.8311H81.2051ZM88.5879 23.5156C88.5879 22.0566 88.9336 20.8818 89.625 19.9912C90.3223 19.1006 91.2598 18.6553 92.4375 18.6553C93.4805 18.6553 94.292 19.0127 94.8721 19.7275L94.9775 18.8311H97.2803V28.0244C97.2803 28.8564 97.0898 29.5801 96.709 30.1953C96.334 30.8105 95.8037 31.2793 95.1182 31.6016C94.4326 31.9238 93.6299 32.085 92.71 32.085C92.0127 32.085 91.333 31.9443 90.6709 31.6631C90.0088 31.3877 89.5078 31.0303 89.168 30.5908L90.293 29.0439C90.9258 29.7529 91.6934 30.1074 92.5957 30.1074C93.2695 30.1074 93.7939 29.9258 94.1689 29.5625C94.5439 29.2051 94.7314 28.6953 94.7314 28.0332V27.5234C94.1455 28.1855 93.375 28.5166 92.4199 28.5166C91.2773 28.5166 90.3516 28.0713 89.6426 27.1807C88.9395 26.2842 88.5879 25.0977 88.5879 23.6211V23.5156ZM91.1279 23.7002C91.1279 24.5615 91.3008 25.2383 91.6465 25.7305C91.9922 26.2168 92.4668 26.46 93.0703 26.46C93.8438 26.46 94.3975 26.1699 94.7314 25.5898V21.5908C94.3916 21.0107 93.8438 20.7207 93.0879 20.7207C92.4785 20.7207 91.998 20.9697 91.6465 21.4678C91.3008 21.9658 91.1279 22.71 91.1279 23.7002ZM99.3633 27.0928C99.3633 26.6885 99.498 26.3604 99.7676 26.1084C100.043 25.8564 100.386 25.7305 100.796 25.7305C101.212 25.7305 101.555 25.8564 101.824 26.1084C102.1 26.3604 102.237 26.6885 102.237 27.0928C102.237 27.4912 102.103 27.8164 101.833 28.0684C101.563 28.3145 101.218 28.4375 100.796 28.4375C100.38 28.4375 100.037 28.3145 99.7676 28.0684C99.498 27.8164 99.3633 27.4912 99.3633 27.0928ZM99.3633 19.8945C99.3633 19.4902 99.498 19.1621 99.7676 18.9102C100.043 18.6582 100.386 18.5322 100.796 18.5322C101.212 18.5322 101.555 18.6582 101.824 18.9102C102.1 19.1621 102.237 19.4902 102.237 19.8945C102.237 20.293 102.103 20.6182 101.833 20.8701C101.563 21.1162 101.218 21.2393 100.796 21.2393C100.38 21.2393 100.037 21.1162 99.7676 20.8701C99.498 20.6182 99.3633 20.293 99.3633 19.8945Z" fill="black"/>
<ellipse cx="179.099" cy="109.216" rx="3.25449" ry="3.01484" fill="#6C63FF"/>
<ellipse cx="188.456" cy="109.216" rx="3.25449" ry="3.01484" fill="#6C63FF"/>
<ellipse cx="197.813" cy="109.216" rx="3.25449" ry="3.01484" fill="#6C63FF"/>
</svg>
